# xmcd
#
# Track frame offsets:
#	160
#	14247
#	30720
#	44775
#	56152
#	72602
#	86475
#	106500
#	122117
#	141640
#	157587
#	176232
#	189800
#	205077
#	219630
#	235345
#	247782
#	268172
#	282357
#	303572
#	315440
#
# Disc length: 4358 seconds
# Revision: 2
# Processed by: cddbd v1.5.2PL0 Copyright (c) Steve Scherf et al.
# Submitted via: dBpowerAMP V12.0
#
DISCID=3a110415
DTITLE=Various Artist - Black Top Blues-A-Rama [dBP]
DYEAR=1990
DGENRE=Blues
TTITLE0=Ron Levy - Chicken Fried Snake
TTITLE1=Bobby Radcliff - Ugh!
TTITLE2=Nappy Brown - Dirty Work
TTITLE3=Snooks Eaglin - Mary Joe
TTITLE4=Snooks Eaglin - Out of Nowhere
TTITLE5=Earl King - Old Mr. Bad Luck
TTITLE6=Neville Brothers - Woman's Gotta Have It
TTITLE7=Hubert Sumlin - I Don't Want to Hear About Yours
TTITLE8=Grady Gaines And The Texas Upsetters - If I Don't Get Involved
TTITLE9=Ronnie Earl - I Want to Shout About It
TTITLE10=James "Thunderbird" Davis - Check-Out Time
TTITLE11=James "Thunderbird" Davis - Come by Here
TTITLE12=Tri-Sax-Ual Soul Champs - Go Girl
TTITLE13=Carol, Fran and Clarence Holliman - Emmitt Lee
TTITLE14=Mike Morgan - Pretty Woman
TTITLE15=Snooks Eaglin - Boogie Woogie on MTK
TTITLE16=Joe "Guitar" Hughes - If You Want to See the Blues
TTITLE17=Dickinson, Bruce [Iron Maiden] - 20 Miles
TTITLE18=Buckwheat Zydeco - Buck's Nouvelle Jole Blon
TTITLE19=Greg Piccolo - The Hammer
TTITLE20=Earl King - Life's Ups and Downs
EXTD=
EXTT0=
EXTT1=
EXTT2=
EXTT3=
EXTT4=
EXTT5=
EXTT6=
EXTT7=
EXTT8=
EXTT9=
EXTT10=
EXTT11=
EXTT12=
EXTT13=
EXTT14=
EXTT15=
EXTT16=
EXTT17=
EXTT18=
EXTT19=
EXTT20=
PLAYORDER=
